<svg width="170" height="72" viewBox="0 0 170 72" fill="none" xmlns="http://www.w3.org/2000/svg">
<path d="M37.6808 50.3452C37.7432 51.7172 38.055 52.9957 38.6163 54.1807C39.24 55.3032 40.0507 56.3011 41.0486 57.1742C42.1088 57.985 43.2937 58.6398 44.6034 59.1387C45.9754 59.5753 47.4099 59.7936 48.9066 59.7936C51.8378 59.7936 54.083 59.2946 55.6421 58.2968C57.2013 57.2366 58.3238 55.9893 59.0099 54.5548L69.1131 60.1677C68.5518 61.3527 67.7722 62.6 66.7744 63.9097C65.7765 65.157 64.4668 66.3108 62.8453 67.371C61.2862 68.4312 59.3529 69.3043 57.0453 69.9903C54.8002 70.6763 52.1496 71.0194 49.0937 71.0194C45.6013 71.0194 42.4206 70.4581 39.5518 69.3355C36.683 68.2129 34.1883 66.5914 32.0679 64.471C30.0099 62.3505 28.3883 59.7624 27.2034 56.7065C26.0808 53.6505 25.5195 50.1892 25.5195 46.3226V45.7613C25.5195 43.8294 25.6945 41.9896 26.0445 40.2419C26.3385 38.7737 26.756 37.3705 27.297 36.0323C28.5443 33.1011 30.2281 30.6065 32.3486 28.5484C34.469 26.4903 36.9324 24.9 39.7389 23.7774C42.5801 22.6039 45.6048 22.0115 48.8131 22.0002C48.8442 22.0001 48.8754 22 48.9066 22C52.898 22 56.3281 22.7172 59.197 24.1516C62.0658 25.5237 64.4357 27.3011 66.3066 29.4839C68.1776 31.6043 69.5496 33.9742 70.4228 36.5936C71.2959 39.1505 71.7324 41.6452 71.7324 44.0774V50.3452H37.6808ZM48.8131 32.6645C45.8195 32.6645 43.3873 33.4441 41.5163 35.0032C39.6453 36.5 38.4292 38.2462 37.8679 40.2419H59.7582C59.384 38.0591 58.1991 36.2505 56.2034 34.8161C54.2701 33.3817 51.8066 32.6645 48.8131 32.6645Z" fill="#296ACB"/>
<path d="M72.8835 23.3097H85.6061L96.5513 64.0968H98.2351L109.18 23.3097H121.903L108.619 69.7097H86.1674L72.8835 23.3097Z" fill="#296ACB"/>
<path d="M135.402 50.3452C135.465 51.7172 135.777 52.9957 136.338 54.1807C136.961 55.3032 137.772 56.3011 138.77 57.1742C139.83 57.985 141.015 58.6398 142.325 59.1387C143.697 59.5753 145.131 59.7936 146.628 59.7936C149.559 59.7936 151.804 59.2946 153.364 58.2968C154.923 57.2366 156.045 55.9893 156.731 54.5548L166.835 60.1677C166.273 61.3527 165.494 62.6 164.496 63.9097C163.498 65.157 162.188 66.3108 160.567 67.371C159.008 68.4312 157.074 69.3043 154.767 69.9903C152.522 70.6763 149.871 71.0194 146.815 71.0194C143.323 71.0194 140.142 70.4581 137.273 69.3355C134.404 68.2129 131.91 66.5914 129.789 64.471C127.731 62.3505 126.11 59.7624 124.925 56.7065C123.802 53.6505 123.241 50.1892 123.241 46.3226V45.7613C123.241 42.2065 123.834 38.9634 125.018 36.0323C126.266 33.1011 127.95 30.6065 130.07 28.5484C132.191 26.4903 134.654 24.9 137.46 23.7774C140.329 22.5925 143.385 22 146.628 22C150.62 22 154.05 22.7172 156.918 24.1516C159.787 25.5237 162.157 27.3011 164.028 29.4839C165.899 31.6043 167.271 33.9742 168.144 36.5936C169.017 39.1505 169.454 41.6452 169.454 44.0774V50.3452H135.402ZM146.535 32.6645C143.541 32.6645 141.109 33.4441 139.238 35.0032C137.367 36.5 136.151 38.2462 135.589 40.2419H157.48C157.106 38.0591 155.921 36.2505 153.925 34.8161C151.992 33.3817 149.528 32.6645 146.535 32.6645Z" fill="#296ACB"/>
<circle cx="15.3382" cy="15.8939" r="2.77868" fill="#296ACB"/>
<circle cx="15.3382" cy="28.3426" r="2.77868" fill="#296ACB"/>
<circle cx="15.3382" cy="2.77868" r="2.77868" fill="#296ACB"/>
<circle cx="15.3382" cy="15.8939" r="2.77868" fill="#296ACB"/>
<circle cx="2.77869" cy="16.0055" r="2.77868" transform="rotate(90 2.77869 16.0055)" fill="#296ACB"/>
<circle cx="28.3427" cy="16.0055" r="2.77868" transform="rotate(90 28.3427 16.0055)" fill="#296ACB"/>
</svg>
