<svg width="99" height="41" viewBox="0 0 99 41" fill="none" xmlns="http://www.w3.org/2000/svg">
<path d="M23.1058 28.9919C23.1417 29.782 23.3213 30.5182 23.6445 31.2006C24.0036 31.847 24.4705 32.4217 25.0451 32.9245C25.6557 33.3913 26.338 33.7684 27.0922 34.0558C27.8823 34.3072 28.7084 34.4329 29.5703 34.4329C31.2583 34.4329 32.5512 34.1455 33.449 33.5709C34.3469 32.9604 34.9933 32.2421 35.3884 31.4161L41.2065 34.6483C40.8832 35.3307 40.4343 36.049 39.8597 36.8032C39.285 37.5215 38.5309 38.1859 37.5971 38.7964C36.6992 39.4069 35.5859 39.9097 34.2571 40.3048C32.9642 40.6999 31.4378 40.8974 29.678 40.8974C27.6669 40.8974 25.8352 40.5742 24.1832 39.9277C22.5312 39.2812 21.0946 38.3475 19.8735 37.1264C18.6883 35.9053 17.7546 34.4149 17.0722 32.6551C16.4258 30.8953 16.1025 28.9021 16.1025 26.6754V26.3522C16.1025 25.2397 16.2033 24.1802 16.4048 23.1738C16.5741 22.3283 16.8146 21.5202 17.1261 20.7496C17.8444 19.0616 18.814 17.6251 20.0351 16.4399C21.2562 15.2548 22.6748 14.339 24.2909 13.6925C25.9271 13.0167 27.6689 12.6755 29.5164 12.669C29.5344 12.669 29.5523 12.6689 29.5703 12.6689C31.8688 12.6689 33.8441 13.082 35.4961 13.908C37.1482 14.6981 38.5129 15.7216 39.5903 16.9786C40.6677 18.1997 41.4578 19.5644 41.9606 21.0728C42.4634 22.5453 42.7148 23.9819 42.7148 25.3825V28.9919H23.1058ZM29.5164 18.8102C27.7926 18.8102 26.3919 19.2592 25.3145 20.157C24.2371 21.019 23.5367 22.0246 23.2135 23.1738H35.8193C35.6039 21.9168 34.9215 20.8753 33.7722 20.0493C32.6589 19.2233 31.2403 18.8102 29.5164 18.8102Z" fill="#2D3142"/>
<path d="M43.3777 13.4231H50.7042L57.0071 36.9109H57.9768L64.2797 13.4231H71.6061L63.9564 40.1432H51.0274L43.3777 13.4231Z" fill="#2D3142"/>
<path d="M79.38 28.9919C79.4159 29.782 79.5955 30.5182 79.9187 31.2006C80.2778 31.847 80.7447 32.4217 81.3193 32.9245C81.9299 33.3913 82.6122 33.7684 83.3664 34.0558C84.1565 34.3072 84.9826 34.4329 85.8445 34.4329C87.5325 34.4329 88.8254 34.1455 89.7232 33.5709C90.6211 32.9604 91.2675 32.2421 91.6626 31.4161L97.4807 34.6483C97.1574 35.3307 96.7085 36.049 96.1339 36.8032C95.5593 37.5215 94.8051 38.1859 93.8713 38.7964C92.9734 39.4069 91.8601 39.9097 90.5313 40.3048C89.2384 40.6999 87.712 40.8974 85.9522 40.8974C83.9411 40.8974 82.1094 40.5742 80.4574 39.9277C78.8054 39.2812 77.3688 38.3475 76.1477 37.1264C74.9626 35.9053 74.0288 34.4149 73.3464 32.6551C72.7 30.8953 72.3767 28.9021 72.3767 26.6754V26.3522C72.3767 24.3051 72.7179 22.4376 73.4003 20.7496C74.1186 19.0616 75.0883 17.6251 76.3093 16.4399C77.5304 15.2548 78.949 14.339 80.5651 13.6925C82.2172 13.0101 83.977 12.6689 85.8445 12.6689C88.143 12.6689 90.1183 13.082 91.7703 13.908C93.4224 14.6981 94.7871 15.7216 95.8645 16.9786C96.9419 18.1997 97.7321 19.5644 98.2349 21.0728C98.7376 22.5453 98.989 23.9819 98.989 25.3825V28.9919H79.38ZM85.7906 18.8102C84.0668 18.8102 82.6661 19.2592 81.5887 20.157C80.5113 21.019 79.8109 22.0246 79.4877 23.1738H92.0935C91.8781 21.9168 91.1957 20.8753 90.0464 20.0493C88.9331 19.2233 87.5145 18.8102 85.7906 18.8102Z" fill="#2D3142"/>
<circle cx="9.46898" cy="17.0246" r="2.30345" fill="#90C3C8"/>
<circle cx="9.46898" cy="2.30345" r="2.30345" fill="#90C3C8"/>
<circle cx="9.46898" cy="9.8557" r="2.30345" fill="#90C3C8"/>
<circle cx="2.30348" cy="9.92015" r="2.30345" transform="rotate(90 2.30348 9.92015)" fill="#90C3C8"/>
<circle cx="17.0247" cy="9.92015" r="2.30345" transform="rotate(90 17.0247 9.92015)" fill="#90C3C8"/>
</svg>
